<svg width="17" height="18" viewBox="0 0 17 18" fill="none" xmlns="http://www.w3.org/2000/svg">
<path d="M0 18L17 9H6.46314L0 18Z" fill="#2B6EC5"/>
<mask id="path-2-inside-1" fill="white">
<path fill-rule="evenodd" clip-rule="evenodd" d="M17 9L0 0L6.46314 9L0 18L17 9Z"/>
</mask>
<path d="M0 0L0.467888 -0.883788L-0.812255 0.583302L0 0ZM17 9L17.4679 9.88379L19.1373 9L17.4679 8.11621L17 9ZM6.46314 9L7.2754 9.5833L7.69428 9L7.2754 8.4167L6.46314 9ZM0 18L-0.812255 17.4167L0.467888 18.8838L0 18ZM-0.467888 0.883788L16.5321 9.88379L17.4679 8.11621L0.467888 -0.883788L-0.467888 0.883788ZM7.2754 8.4167L0.812255 -0.583302L-0.812255 0.583302L5.65089 9.5833L7.2754 8.4167ZM5.65089 8.4167L-0.812255 17.4167L0.812255 18.5833L7.2754 9.5833L5.65089 8.4167ZM0.467888 18.8838L17.4679 9.88379L16.5321 8.11621L-0.467888 17.1162L0.467888 18.8838Z" fill="#315C88" mask="url(#path-2-inside-1)"/>
</svg>
